<svg width="40" height="40" viewBox="0 0 40 40" fill="none" xmlns="http://www.w3.org/2000/svg">
  <circle cx="19.9396" cy="20.0349" r="19.5138" fill="#ffffff"></circle>
  <path
    d="M36.8083 9.15946C36.0501 7.98551 35.1574 6.8727 34.1302 5.85772C33.8368 5.56423 33.5433 5.28297 33.2375 5.01394C29.5812 1.77334 24.922 0.000183105 19.9939 0.000183105C14.65 0.000183105 9.6362 2.07906 5.85754 5.85772C2.07887 9.63638 0 14.6501 0 19.9941C0 25.338 2.07887 30.3518 5.85754 34.1304C9.6362 37.9091 14.65 39.988 19.9939 39.988C25.3378 39.988 30.3516 37.9091 34.1302 34.1304C37.9089 30.3518 39.9878 25.3258 39.9878 19.9941C39.9878 16.0931 38.8872 12.3634 36.8083 9.15946ZM33.262 33.25C29.7157 36.7963 25.0076 38.7406 20.0061 38.7406C14.9924 38.7406 10.2843 36.784 6.75023 33.25C3.20391 29.7036 1.25955 24.9956 1.25955 19.9941C1.25955 14.9803 3.21614 10.2723 6.75023 6.73818C10.2965 3.19187 15.0046 1.24751 20.0061 1.24751C25.0199 1.24751 29.7279 3.2041 33.262 6.73818C33.3231 6.79933 33.3843 6.86047 33.4454 6.92161C34.2403 7.72871 34.9129 8.68254 35.402 9.67307C35.7689 10.3946 36.0501 11.0671 36.2091 11.862C36.6371 13.574 36.6983 15.4083 36.5271 17.3038C36.1847 21.2292 34.3259 24.7877 31.3054 27.3068C28.2849 29.8382 24.4574 31.0366 20.5319 30.6942C14.1241 30.1316 9.36717 24.4453 9.92968 18.0375C10.3821 12.9748 14.8578 9.23283 19.9205 9.67307C21.8526 9.84427 23.5891 10.7492 24.8364 12.2411C26.0715 13.7208 26.6707 15.604 26.4995 17.5239C26.365 19.028 25.6558 20.3976 24.494 21.3637C23.3323 22.3297 21.8649 22.7944 20.3607 22.6599C19.1868 22.5621 18.1351 21.9996 17.377 21.1069C16.6188 20.202 16.2641 19.0647 16.3742 17.8907C16.4476 16.9858 16.8756 16.1787 17.5726 15.5917C18.2696 15.0048 19.1501 14.7357 20.0428 14.8091C20.7276 14.8703 21.3513 15.1882 21.7915 15.7263C22.2317 16.2521 22.4396 16.9247 22.3907 17.6095C22.2929 18.6734 21.3513 19.456 20.2874 19.3704C19.9327 19.3337 19.6148 19.6028 19.5781 19.9574C19.5414 20.312 19.8105 20.63 20.1651 20.6544C21.9382 20.8134 23.5157 19.4927 23.6747 17.7195C23.7603 16.6923 23.4546 15.6773 22.782 14.8825C22.1217 14.0876 21.1801 13.5985 20.1529 13.5129C18.9055 13.4028 17.6949 13.7819 16.7288 14.589C15.7628 15.3961 15.1758 16.5211 15.0657 17.7685C14.9312 19.2848 15.3959 20.7645 16.3742 21.9262C17.3525 23.0879 18.7221 23.8094 20.2385 23.9439C22.085 24.1029 23.8948 23.5404 25.3134 22.3542C26.7441 21.1558 27.6124 19.4805 27.7836 17.6339C27.9792 15.3594 27.2944 13.146 25.827 11.3973C24.3595 9.64861 22.3051 8.57248 20.0306 8.37683C14.2586 7.86322 9.14705 12.1433 8.63345 17.9152C7.99756 25.0445 13.2926 31.3423 20.4097 31.9782C24.6775 32.3573 28.8474 31.0488 32.137 28.2973C35.4265 25.5459 37.4442 21.6816 37.8233 17.4138C37.9211 16.3377 37.9211 15.2738 37.8478 14.2221C38.4347 16.0564 38.7404 18.0008 38.7404 19.9818C38.7527 24.9956 36.8083 29.7036 33.262 33.25Z"
    fill="#066fde"></path>
  <path
    d="M20.0056 39.9998C14.6617 39.9998 9.64792 37.9209 5.86926 34.1423C2.09059 30.3636 0.0117188 25.3498 0.0117188 20.0059C0.0117188 14.662 2.09059 9.64822 5.86926 5.86956C9.64792 2.0909 14.6617 0.0120239 20.0056 0.0120239C25.3495 0.0120239 30.3633 2.0909 34.142 5.86956C37.9206 9.64822 39.9873 14.662 39.9873 20.0059C39.9873 25.3498 37.9084 30.3636 34.1297 34.1423C30.3511 37.9209 25.3373 39.9998 20.0056 39.9998ZM20.0056 1.24712C14.9918 1.24712 10.2838 3.20371 6.74972 6.7378C3.2034 10.2841 1.25904 14.9922 1.25904 19.9937C1.25904 25.0074 3.21563 29.7155 6.74972 33.2496C10.296 36.7959 15.0041 38.7402 20.0056 38.7402C25.0194 38.7402 29.7274 36.7837 33.2615 33.2496C36.8078 29.7032 38.7522 24.9952 38.7522 19.9937C38.7522 14.9799 36.7956 10.2719 33.2615 6.7378C29.7152 3.20371 25.0071 1.24712 20.0056 1.24712Z"
    fill="#066fde"></path>
</svg>
